<svg xmlns="http://www.w3.org/2000/svg" viewBox="0 0 560 500" width="560" height="500" role="img" aria-labelledby="title desc">
<title>Verdify favicon</title>
<desc>SVG favicon</desc>
<style>
.word{fill:#112231;font-family:Inter, 'Inter', sans-serif;font-weight:700}
.sub{fill:#6B7280;font-family:Inter, 'Inter', sans-serif;font-weight:500}
.body{fill:#2A3437;font-family:Inter, 'Inter', sans-serif;font-weight:400}
.small{fill:#6B7280;font-family:Inter, 'Inter', sans-serif;font-weight:400}
.safe{stroke:#C9D1DA;stroke-width:2;stroke-dasharray:10 8;fill:none}
.rule{stroke:#D9DEE3;stroke-width:1.5}
</style>
<g transform="translate(3.425,13.260) scale(0.994475)"><path fill="none" stroke="#112231" stroke-width="18" stroke-linecap="round" stroke-linejoin="round" d="M382 60H122C96 60 77 87 77 120V344C77 377 104 400 132 400H392C415 400 443 376 443 344V146"/><path fill="#2E7D5C" d="M410 98
C416 99 419 106 415 114
L301 318
C291 334 276 339 261 336
C252 334 246 328 244 320
C279 262 337 172 396 106
C400 101 405 97 410 98Z"/><path fill="#112231" d="M160 196
C172 194 181 199 187 209
L264 322
C270 328 278 332 292 325
C286 337 276 347 263 352
C245 360 225 351 212 338
L142 237
C135 227 139 213 147 205
C152 200 156 197 160 196Z"/><circle fill="#7DE2B8" cx="444.0" cy="68.0" r="21.0"/></g></svg>
