<svg xmlns="http://www.w3.org/2000/svg" viewBox="0 0 540 190" width="540" height="190" role="img" aria-labelledby="title desc">
<title>Verdify mark-as-V wordmark</title>
<desc>Verdify mark-as-V typographic lockup. The mark is optically fitted as a V glyph and aligned to the Inter Bold wordmark baseline.</desc>
<style>
.word{fill:#112231;font-family:Inter, 'Inter', sans-serif;font-weight:700;letter-spacing:-0.35px}
.sub{fill:#6B7280;font-family:Inter, 'Inter', sans-serif;font-weight:500}
</style>


<g id="verdify-v-glyph" transform="translate(-10.500,4.200) scale(0.300000,0.400000)">
  <path id="verdify-v-green" fill="#2E7D5C" d="M410 98
C416 99 419 106 415 114
L301 318
C291 334 276 339 261 336
C252 334 246 328 244 320
C279 262 337 172 396 106
C400 101 405 97 410 98Z"/>
  <path id="verdify-v-navy" fill="#112231" d="M160 196
C172 194 181 199 187 209
L264 322
C270 328 278 332 292 325
C286 337 276 347 263 352
C245 360 225 351 212 338
L142 237
C135 227 139 213 147 205
C152 200 156 197 160 196Z"/>
  <circle id="verdify-v-dot" fill="#7DE2B8" cx="444.0" cy="68.0" r="21.0"/>
</g>
<text id="verdify-rest" x="108" y="145" class="word" font-size="120">erdify</text>
</svg>
